<svg width="85" height="51" viewBox="0 0 85 51" fill="none" xmlns="http://www.w3.org/2000/svg">
<g id="Logo 04">
<rect id="Bg Shape" width="84.2614" height="50.0139" fill="white"/>
<g id="Logo">
<g id="&#240;&#159;&#150;&#165;-Landing-Pages">
<g id="Logos">
<g id="Logos-raw">
<g id="Logo-5">
<g id="Dorfus">
<path d="M12.8865 31.4526C13.3895 31.4196 13.7521 31.3471 13.9742 31.235C14.3662 31.0307 14.5622 30.6582 14.5622 30.1177V20.1308C14.5622 19.61 14.376 19.2475 14.0036 19.0431C13.788 18.9245 13.4156 18.8421 12.8865 18.7959V18.2817H19.0209C21.4968 18.2817 23.3849 18.9475 24.6849 20.2791C25.8674 21.4921 26.4586 23.1203 26.4586 25.1638C26.4586 26.9964 25.8641 28.5488 24.6751 29.821C23.3359 31.2515 21.5197 31.9667 19.2267 31.9667H12.8865V31.4526ZM17.8058 30.0979C17.8254 30.5132 17.9005 30.8131 18.0311 30.9977C18.1683 31.1823 18.4558 31.2746 18.8935 31.2746C20.0825 31.2746 21.0591 30.8527 21.8235 30.0089C22.5878 29.1586 22.97 27.5303 22.97 25.1242C22.97 23.6938 22.7642 22.4644 22.3527 21.436C21.6863 19.7814 20.5626 18.9541 18.9817 18.9541C18.459 18.9541 18.1193 19.0662 17.9625 19.2903C17.858 19.4353 17.8058 19.7155 17.8058 20.1308V30.0979Z" fill="#04091E"/>
<path d="M27.5561 27.3293C27.5561 25.9186 27.984 24.7419 28.8398 23.7993C29.7022 22.8566 30.7834 22.3853 32.0834 22.3853C33.4096 22.3853 34.4941 22.8665 35.3368 23.8289C36.1861 24.7913 36.6107 25.9581 36.6107 27.3293C36.6107 28.6806 36.1926 29.8441 35.3564 30.8197C34.5202 31.7888 33.4292 32.2733 32.0834 32.2733C30.7768 32.2733 29.6956 31.8019 28.8398 30.8593C27.984 29.91 27.5561 28.7334 27.5561 27.3293ZM30.5057 27.3293C30.5057 28.7466 30.5776 29.7386 30.7213 30.3056C30.95 31.1823 31.404 31.6207 32.0834 31.6207C32.7302 31.6207 33.1548 31.2845 33.3573 30.6121C33.5599 29.9397 33.6611 28.8454 33.6611 27.3293C33.6611 25.8197 33.5533 24.7287 33.3377 24.0563C33.1287 23.3774 32.7138 23.0379 32.0932 23.0379C31.4138 23.0379 30.9598 23.4762 30.7311 24.353C30.5809 24.9397 30.5057 25.9318 30.5057 27.3293Z" fill="#04091E"/>
<path d="M37.5123 31.4822C37.8977 31.4361 38.1656 31.3438 38.3158 31.2054C38.4661 31.0669 38.5477 30.8 38.5608 30.4044L38.5804 29.8112V24.3035C38.5804 23.8817 38.5085 23.5949 38.3648 23.4433C38.2211 23.2917 37.9369 23.1895 37.5123 23.1368V22.6424H41.3242V24.2343C41.7489 23.674 42.1702 23.229 42.5883 22.8994C43.0064 22.5698 43.4899 22.405 44.0386 22.405C44.4502 22.405 44.8193 22.5402 45.146 22.8105C45.4791 23.0741 45.6457 23.4631 45.6457 23.9772C45.6457 24.3728 45.5281 24.6991 45.293 24.9561C45.0643 25.2132 44.7638 25.3418 44.3914 25.3418C43.9668 25.3418 43.5977 25.1407 43.2841 24.7386C42.977 24.3365 42.7615 24.1354 42.6373 24.1354C42.3695 24.1354 42.0984 24.3035 41.824 24.6397C41.5561 24.9693 41.4222 25.444 41.4222 26.0636V29.8903C41.4222 30.5626 41.5169 30.9845 41.7064 31.1559C41.9024 31.3207 42.2878 31.4295 42.8627 31.4822V31.9667H37.5123V31.4822Z" fill="#04091E"/>
<path d="M46.3415 31.4822C46.7531 31.4493 47.047 31.357 47.2234 31.2054C47.4064 31.0538 47.4978 30.7373 47.4978 30.2561V23.6707H46.3415V22.7808H47.4978V22.0293C47.4978 21.0866 47.6448 20.3121 47.9388 19.7056C48.4941 18.5718 49.5198 18.0049 51.0158 18.0049C51.8128 18.0049 52.4857 18.1895 53.0345 18.5586C53.5898 18.9212 53.8674 19.4024 53.8674 20.0023C53.8674 20.378 53.7498 20.6812 53.5146 20.912C53.286 21.1427 52.9789 21.258 52.5935 21.258C52.2734 21.258 51.999 21.1526 51.7703 20.9416C51.5417 20.7307 51.4274 20.4769 51.4274 20.1802C51.4274 19.9561 51.4992 19.7221 51.6429 19.4782C51.7932 19.2277 51.8683 19.0761 51.8683 19.0233C51.8683 18.8585 51.8095 18.7531 51.6919 18.7069C51.5743 18.6608 51.447 18.6377 51.3098 18.6377C50.9831 18.6377 50.7316 18.7333 50.5552 18.9245C50.3788 19.1156 50.2906 19.5276 50.2906 20.1605V22.7808H52.0349V23.6707H50.2906V29.8903C50.2906 30.589 50.3886 31.0175 50.5846 31.1757C50.7871 31.3339 51.2314 31.4361 51.9173 31.4822V31.9667H46.3415V31.4822Z" fill="#04091E"/>
<path d="M56.8562 22.6424V29.5145C56.8562 29.9232 56.9052 30.2232 57.0032 30.4143C57.173 30.7505 57.5095 30.9186 58.0125 30.9186C58.3326 30.9186 58.6462 30.8164 58.9533 30.6121C59.1297 30.5 59.3518 30.3122 59.6196 30.0485V24.3035C59.6196 23.8817 59.5347 23.5883 59.3648 23.4235C59.2015 23.2521 58.8683 23.1565 58.3653 23.1368V22.6424H62.3634V29.9298C62.3634 30.3517 62.4418 30.645 62.5986 30.8098C62.7554 30.9681 63.0625 31.0669 63.5198 31.1065V31.5712C62.2785 31.6899 61.4946 31.7789 61.1679 31.8382C60.8478 31.8909 60.3317 32.0294 59.6196 32.2535V30.9186C59.1427 31.3339 58.7475 31.6273 58.4339 31.7986C57.8851 32.1019 57.3135 32.2535 56.719 32.2535C56.0723 32.2535 55.468 32.0458 54.9061 31.6306C54.3508 31.2153 54.0732 30.477 54.0732 29.4156V24.3035C54.0732 23.8751 54.0046 23.5949 53.8674 23.4631C53.7302 23.3312 53.4656 23.2225 53.0737 23.1368V22.6424H56.8562Z" fill="#04091E"/>
<path d="M64.4311 28.9015H64.9897C65.1857 29.8705 65.5515 30.5561 66.0872 30.9582C66.6229 31.3537 67.1717 31.5514 67.7335 31.5514C68.2496 31.5514 68.6285 31.4361 68.8702 31.2054C69.1119 30.9681 69.2328 30.6582 69.2328 30.2759C69.2328 29.9133 69.1021 29.6035 68.8408 29.3464C68.6971 29.208 68.4652 29.0597 68.1451 28.9015L66.6556 28.1698C65.8716 27.7808 65.3098 27.3589 64.9701 26.9041C64.6238 26.4492 64.4507 25.912 64.4507 25.2923C64.4507 24.5079 64.7218 23.8322 65.2641 23.2653C65.8063 22.6918 66.5641 22.405 67.5375 22.405C67.9621 22.405 68.4129 22.4776 68.8898 22.6226C69.3667 22.761 69.664 22.8302 69.7816 22.8302C69.9449 22.8302 70.0592 22.7973 70.1245 22.7313C70.1964 22.6588 70.2552 22.56 70.3009 22.4347H70.7419V25.3616H70.2323C70.0429 24.676 69.7326 24.1256 69.3014 23.7103C68.8702 23.295 68.3672 23.0873 67.7923 23.0873C67.3481 23.0873 67.0149 23.2126 66.7928 23.4631C66.5772 23.7136 66.4694 23.9838 66.4694 24.2739C66.4694 24.5112 66.5674 24.7485 66.7634 24.9858C66.9528 25.2297 67.3121 25.4802 67.8413 25.7373L68.9388 26.2713C69.6182 26.6009 70.1147 26.9206 70.4283 27.2304C70.951 27.7577 71.2123 28.4071 71.2123 29.1783C71.2123 29.9298 70.9412 30.6319 70.3989 31.2845C69.8632 31.9305 69.0564 32.2535 67.9785 32.2535C67.7106 32.2535 67.4395 32.2238 67.1651 32.1645C66.8973 32.1118 66.5641 32.0162 66.1656 31.8778L65.8226 31.7591C65.6985 31.713 65.6201 31.6866 65.5874 31.68C65.5613 31.6734 65.5254 31.6701 65.4796 31.6701C65.3686 31.6701 65.2706 31.7162 65.1857 31.8085C65.1073 31.8942 65.0158 32.0426 64.9113 32.2535H64.4311V28.9015Z" fill="#04091E"/>
</g>
</g>
</g>
</g>
</g>
</g>
</g>
</svg>
