<svg width="86" height="51" viewBox="0 0 86 51" fill="none" xmlns="http://www.w3.org/2000/svg">
<g id="Logo 01">
<rect id="Bg Shape" x="0.904297" width="84.2614" height="50.0139" fill="white"/>
<g id="Logo">
<g id="Page-1">
<g id="5">
<g id="6">
<path id="Martino" d="M30.5465 27.2548V21.1662C30.5465 20.8097 30.5182 20.0801 30.4617 18.9774L31.2177 21.651L33.0124 27.2548H34.4962L36.2908 21.651C36.3175 21.567 36.3466 21.4723 36.3782 21.3668L36.4172 21.235C36.5711 20.7102 36.7763 19.9576 37.0327 18.9774C36.9903 20.0231 36.9679 20.6148 36.9656 20.7526C36.9632 20.8905 36.9621 21.0283 36.9621 21.1662V27.2548H38.8132V17.2093H36.0365L34.2065 23.1054L33.7613 24.7166L33.4222 23.3692L33.2668 22.8273L31.4862 17.2093H28.6953V27.2548H30.5465ZM42.5455 27.3973C43.6666 27.3973 44.505 26.8911 45.0608 25.8788H45.1032C45.1503 26.3588 45.2928 26.7224 45.5307 26.9696C45.7686 27.2167 46.1372 27.3403 46.6365 27.3403C46.7778 27.3403 46.9014 27.3356 47.0074 27.326C47.1134 27.3165 47.2135 27.3047 47.3077 27.2904C47.4019 27.2761 47.4961 27.2571 47.5903 27.2334C47.6845 27.2096 47.7905 27.1835 47.9083 27.1549V26.0713C47.767 26.0998 47.6209 26.114 47.4702 26.114C47.2441 26.114 47.0828 26.032 46.9862 25.8681C46.8897 25.7041 46.8414 25.4058 46.8414 24.9733V22.1643C46.8414 21.2802 46.5799 20.5982 46.0571 20.1181C45.5342 19.6381 44.79 19.398 43.8244 19.398C42.8682 19.398 42.1133 19.5917 41.5598 19.9791C41.0064 20.3665 40.666 20.9356 40.5389 21.6866L42.6091 21.7864C42.6515 21.3967 42.7586 21.1174 42.9306 20.9487C43.1025 20.78 43.3722 20.6956 43.7396 20.6956C44.1353 20.6956 44.4202 20.818 44.5945 21.0628C44.7688 21.3076 44.8559 21.6819 44.8559 22.1857V22.5778L43.2097 22.6063C42.2299 22.6158 41.4821 22.8297 40.9663 23.248C40.4505 23.6662 40.1926 24.2746 40.1926 25.0731C40.1926 25.8098 40.3999 26.3814 40.8144 26.7878C41.2289 27.1942 41.806 27.3973 42.5455 27.3973ZM43.1814 26C42.9035 26 42.6809 25.9108 42.5137 25.7326C42.3465 25.5544 42.2629 25.2823 42.2629 24.9163C42.2629 24.6311 42.3135 24.4029 42.4148 24.2318C42.5161 24.0607 42.6633 23.9336 42.8564 23.8504C43.0495 23.7672 43.3769 23.7161 43.8385 23.6971L44.8559 23.6829V24.075C44.8559 24.4125 44.7829 24.7321 44.6369 25.0339C44.4909 25.3357 44.2895 25.5722 44.0328 25.7433C43.7761 25.9144 43.4923 26 43.1814 26ZM50.7997 27.2548V23.469C50.7997 22.6752 50.9375 22.0764 51.2131 21.6723C51.4886 21.2683 51.8737 21.0663 52.3683 21.0663C52.6132 21.0663 52.8958 21.102 53.2162 21.1733V19.4978C53.0607 19.4266 52.8558 19.3909 52.6014 19.3909C52.2906 19.3909 52.0315 19.4444 51.8242 19.5513C51.617 19.6583 51.438 19.8222 51.2872 20.0433C51.1365 20.2643 50.9646 20.6457 50.7715 21.1875H50.7432C50.7432 21.0449 50.7314 20.7562 50.7079 20.3213C50.6843 19.8864 50.6655 19.6262 50.6513 19.5406H48.7578C48.7719 19.7593 48.7848 20.01 48.7966 20.2928C48.8084 20.5756 48.8143 20.9285 48.8143 21.3515V27.2548H50.7997ZM56.3902 27.3831C57.0167 27.3831 57.5749 27.3023 58.0648 27.1407V25.9001C57.7774 25.9667 57.556 26 57.4006 26C57.1038 26 56.8848 25.9108 56.7435 25.7326C56.6022 25.5544 56.5315 25.2775 56.5315 24.902V20.8952H57.98V19.5406H56.5315V17.7297H55.288L54.6662 19.5406H53.5993V20.8952H54.5673V25.4439C54.5673 26.095 54.7251 26.581 55.0407 26.9018C55.3563 27.2227 55.8061 27.3831 56.3902 27.3831ZM61.2247 18.1504V16.6746H59.2393V18.1504H61.2247ZM61.2247 27.2548V19.5406H59.2393V27.2548H61.2247ZM65.2325 27.2548V23.1196C65.2325 22.4685 65.3797 21.9349 65.6741 21.5191C65.9685 21.1032 66.3559 20.8952 66.8364 20.8952C67.7455 20.8952 68.2001 21.5725 68.2001 22.9271V27.2548H70.1784V22.3568C70.1784 21.3872 69.9617 20.6505 69.5284 20.1466C69.095 19.6428 68.4733 19.3909 67.6631 19.3909C67.1025 19.3909 66.6197 19.524 66.2146 19.7902C65.8095 20.0563 65.4727 20.4841 65.2042 21.0735H65.176C65.176 20.9261 65.1642 20.6564 65.1406 20.2643C65.1171 19.8721 65.0983 19.6309 65.0841 19.5406H63.1905C63.2047 19.7498 63.2176 19.9862 63.2294 20.25C63.2412 20.5138 63.2471 20.8525 63.2471 21.266V27.2548H65.2325ZM75.451 27.3973C76.6662 27.3973 77.6177 27.0421 78.3055 26.3315C78.9932 25.6209 79.337 24.6406 79.337 23.3906C79.337 22.1025 79.0085 21.1151 78.3514 20.4282C77.6943 19.7414 76.7416 19.398 75.4934 19.398C74.2734 19.398 73.3242 19.7533 72.6459 20.4639C71.9676 21.1745 71.6285 22.15 71.6285 23.3906C71.6285 24.6358 71.9676 25.615 72.6459 26.3279C73.3242 27.0409 74.2592 27.3973 75.451 27.3973ZM75.4298 26.0285C74.8739 26.0285 74.4488 25.8039 74.1544 25.3547C73.86 24.9056 73.7128 24.2509 73.7128 23.3906C73.7128 21.6462 74.3158 20.774 75.5216 20.774C76.0869 20.774 76.5179 20.9808 76.8146 21.3943C77.1114 21.8078 77.2598 22.4732 77.2598 23.3906C77.2598 25.1492 76.6498 26.0285 75.4298 26.0285Z" fill="#04091E"/>
<path id="Colorsofyourlife" opacity="0.595853" d="M48.3762 33.5456C48.5269 33.5456 48.6665 33.5213 48.795 33.4726C48.9235 33.424 49.0316 33.3592 49.1194 33.2782C49.2071 33.1971 49.28 33.1148 49.338 33.0313C49.3961 32.9478 49.4437 32.8611 49.4807 32.7714L49.0434 32.633C48.989 32.7701 48.9019 32.8861 48.7821 32.9808C48.6622 33.0756 48.5245 33.1229 48.3688 33.1229C48.1291 33.1229 47.9376 33.022 47.7943 32.82C47.6509 32.618 47.5793 32.3438 47.5793 31.9972C47.5793 31.6556 47.6503 31.3832 47.7924 31.18C47.9345 30.9768 48.1266 30.8752 48.3688 30.8752C48.6233 30.8752 48.8296 31.0185 48.9878 31.3053L49.4066 31.1669C49.3201 30.9649 49.1885 30.7954 49.0119 30.6582C48.8352 30.5211 48.6233 30.4525 48.3762 30.4525C47.9932 30.4525 47.6806 30.5915 47.4384 30.8695C47.1963 31.1476 47.0752 31.5234 47.0752 31.9972C47.0752 32.4784 47.1981 32.8568 47.444 33.1323C47.6899 33.4078 48.0006 33.5456 48.3762 33.5456ZM50.6854 33.5456C50.8336 33.5456 50.9664 33.5206 51.0838 33.4708C51.2012 33.4209 51.2957 33.3567 51.3674 33.2782C51.439 33.1996 51.4983 33.1086 51.5453 33.0051C51.5922 32.9017 51.625 32.8 51.6435 32.7003C51.662 32.6006 51.6713 32.5008 51.6713 32.4011C51.6713 32.0795 51.5873 31.8077 51.4193 31.5858C51.2512 31.3639 51.0066 31.2529 50.6854 31.2529C50.3617 31.2529 50.1158 31.3639 49.9478 31.5858C49.7797 31.8077 49.6957 32.0795 49.6957 32.4011C49.6957 32.5058 49.705 32.6087 49.7235 32.7097C49.7421 32.8106 49.7754 32.9129 49.8236 33.0163C49.8718 33.1198 49.9323 33.2096 50.0052 33.2856C50.0781 33.3617 50.1732 33.424 50.2906 33.4726C50.408 33.5213 50.5396 33.5456 50.6854 33.5456ZM50.6854 33.1416C50.5495 33.1416 50.4309 33.0806 50.3295 32.9584C50.2282 32.8362 50.1776 32.6504 50.1776 32.4011C50.1776 32.1468 50.2288 31.9592 50.3314 31.8382C50.4339 31.7173 50.5519 31.6568 50.6854 31.6568C50.8188 31.6568 50.9362 31.7173 51.0375 31.8382C51.1388 31.9592 51.1895 32.1468 51.1895 32.4011C51.1895 32.6504 51.1388 32.8362 51.0375 32.9584C50.9362 33.0806 50.8188 33.1416 50.6854 33.1416ZM52.5646 33.4782V30.4226H52.0976V33.4782H52.5646ZM53.9805 33.5456C54.1287 33.5456 54.2616 33.5206 54.3789 33.4708C54.4963 33.4209 54.5908 33.3567 54.6625 33.2782C54.7341 33.1996 54.7935 33.1086 54.8404 33.0051C54.8874 32.9017 54.9201 32.8 54.9386 32.7003C54.9572 32.6006 54.9664 32.5008 54.9664 32.4011C54.9664 32.0795 54.8824 31.8077 54.7144 31.5858C54.5463 31.3639 54.3017 31.2529 53.9805 31.2529C53.6568 31.2529 53.4109 31.3639 53.2429 31.5858C53.0749 31.8077 52.9908 32.0795 52.9908 32.4011C52.9908 32.5058 53.0001 32.6087 53.0186 32.7097C53.0372 32.8106 53.0705 32.9129 53.1187 33.0163C53.1669 33.1198 53.2274 33.2096 53.3003 33.2856C53.3732 33.3617 53.4684 33.424 53.5857 33.4726C53.7031 33.5213 53.8347 33.5456 53.9805 33.5456ZM53.9805 33.1416C53.8446 33.1416 53.726 33.0806 53.6247 32.9584C53.5233 32.8362 53.4727 32.6504 53.4727 32.4011C53.4727 32.1468 53.524 31.9592 53.6265 31.8382C53.7291 31.7173 53.847 31.6568 53.9805 31.6568C54.1139 31.6568 54.2313 31.7173 54.3326 31.8382C54.4339 31.9592 54.4846 32.1468 54.4846 32.4011C54.4846 32.6504 54.4339 32.8362 54.3326 32.9584C54.2313 33.0806 54.1139 33.1416 53.9805 33.1416ZM55.8226 33.4782V32.3787C55.8226 32.1692 55.8653 32.0015 55.9505 31.8756C56.0358 31.7497 56.1587 31.6868 56.3193 31.6868C56.4107 31.6868 56.5034 31.7017 56.5973 31.7316V31.3015C56.5256 31.2691 56.433 31.2529 56.3193 31.2529C56.1982 31.2529 56.0938 31.2828 56.0061 31.3427C55.9184 31.4025 55.8511 31.4723 55.8041 31.5521V31.3202H55.3519V33.4782H55.8226ZM57.6092 33.5456C57.8785 33.5456 58.0867 33.4839 58.2337 33.3604C58.3808 33.237 58.4543 33.0868 58.4543 32.9098C58.4543 32.623 58.2344 32.4086 57.7945 32.2665C57.7822 32.2615 57.7624 32.2552 57.7352 32.2478C57.6314 32.2129 57.5511 32.1842 57.4943 32.1617C57.4375 32.1393 57.3825 32.1038 57.3293 32.0551C57.2762 32.0065 57.2497 31.951 57.2497 31.8887C57.2497 31.8139 57.2799 31.7534 57.3405 31.7073C57.401 31.6612 57.4881 31.6381 57.6018 31.6381C57.8093 31.6381 57.986 31.7391 58.1318 31.9411L58.4432 31.7503C58.3666 31.6057 58.2504 31.4867 58.0947 31.3932C57.9391 31.2997 57.7735 31.2529 57.5981 31.2529C57.3633 31.2529 57.1669 31.3103 57.0087 31.4249C56.8506 31.5396 56.7715 31.6917 56.7715 31.8812C56.7715 31.9785 56.7888 32.0639 56.8234 32.1374C56.858 32.211 56.9087 32.2721 56.9754 32.3207C57.0421 32.3693 57.1057 32.408 57.1663 32.4366C57.2268 32.4653 57.3015 32.4946 57.3905 32.5245C57.4004 32.527 57.4164 32.532 57.4387 32.5395C57.5622 32.5794 57.6549 32.6112 57.7167 32.6349C57.7785 32.6585 57.8371 32.6941 57.8927 32.7415C57.9483 32.7888 57.9761 32.8437 57.9761 32.906C57.9761 32.9833 57.9422 33.045 57.8742 33.0911C57.8063 33.1373 57.7142 33.1603 57.5981 33.1603C57.3609 33.1603 57.1681 33.0506 57.0198 32.8312L56.6826 33.0294C56.769 33.189 56.8932 33.3149 57.0551 33.4072C57.2169 33.4994 57.4016 33.5456 57.6092 33.5456ZM60.6152 33.5456C60.7635 33.5456 60.8963 33.5206 61.0136 33.4708C61.131 33.4209 61.2255 33.3567 61.2972 33.2782C61.3689 33.1996 61.4282 33.1086 61.4751 33.0051C61.5221 32.9017 61.5548 32.8 61.5733 32.7003C61.5919 32.6006 61.6011 32.5008 61.6011 32.4011C61.6011 32.0795 61.5171 31.8077 61.3491 31.5858C61.1811 31.3639 60.9364 31.2529 60.6152 31.2529C60.2915 31.2529 60.0456 31.3639 59.8776 31.5858C59.7096 31.8077 59.6255 32.0795 59.6255 32.4011C59.6255 32.5058 59.6348 32.6087 59.6533 32.7097C59.6719 32.8106 59.7052 32.9129 59.7534 33.0163C59.8016 33.1198 59.8621 33.2096 59.935 33.2856C60.0079 33.3617 60.1031 33.424 60.2204 33.4726C60.3378 33.5213 60.4694 33.5456 60.6152 33.5456ZM60.6152 33.1416C60.4793 33.1416 60.3607 33.0806 60.2594 32.9584C60.1581 32.8362 60.1074 32.6504 60.1074 32.4011C60.1074 32.1468 60.1587 31.9592 60.2612 31.8382C60.3638 31.7173 60.4818 31.6568 60.6152 31.6568C60.7486 31.6568 60.866 31.7173 60.9673 31.8382C61.0686 31.9592 61.1193 32.1468 61.1193 32.4011C61.1193 32.6504 61.0686 32.8362 60.9673 32.9584C60.866 33.0806 60.7486 33.1416 60.6152 33.1416ZM62.6204 33.4782V31.7242H63.0652V31.3202H62.6204V31.122C62.6204 31.0173 62.6383 30.9412 62.6742 30.8939C62.71 30.8465 62.7662 30.8228 62.8428 30.8228H63.1134V30.4226H62.7761C62.576 30.4226 62.4209 30.4781 62.3109 30.589C62.201 30.7 62.146 30.8664 62.146 31.0883V31.3202H61.8198V31.7242H62.146V33.4782H62.6204ZM64.4329 34.3609C64.6183 34.3609 64.7733 34.316 64.8981 34.2263C65.0229 34.1365 65.1248 33.9819 65.2039 33.7625L66.0898 31.3202H65.5783L65.241 32.431C65.1619 32.7178 65.1162 32.8836 65.1038 32.9285H65.089C65.0569 32.8013 65.0099 32.6355 64.9481 32.431L64.5812 31.3202H64.066L64.8666 33.4259L64.7962 33.6391C64.7542 33.7588 64.698 33.8429 64.6275 33.8915C64.5571 33.9401 64.4663 33.9645 64.3551 33.9645H64.2884V34.3609H64.4329ZM67.2388 33.5456C67.387 33.5456 67.5199 33.5206 67.6372 33.4708C67.7546 33.4209 67.8491 33.3567 67.9208 33.2782C67.9925 33.1996 68.0518 33.1086 68.0987 33.0051C68.1457 32.9017 68.1784 32.8 68.1969 32.7003C68.2155 32.6006 68.2247 32.5008 68.2247 32.4011C68.2247 32.0795 68.1407 31.8077 67.9727 31.5858C67.8047 31.3639 67.56 31.2529 67.2388 31.2529C66.9151 31.2529 66.6692 31.3639 66.5012 31.5858C66.3332 31.8077 66.2491 32.0795 66.2491 32.4011C66.2491 32.5058 66.2584 32.6087 66.2769 32.7097C66.2955 32.8106 66.3288 32.9129 66.377 33.0163C66.4252 33.1198 66.4857 33.2096 66.5586 33.2856C66.6315 33.3617 66.7267 33.424 66.844 33.4726C66.9614 33.5213 67.093 33.5456 67.2388 33.5456ZM67.2388 33.1416C67.1029 33.1416 66.9843 33.0806 66.883 32.9584C66.7816 32.8362 66.731 32.6504 66.731 32.4011C66.731 32.1468 66.7823 31.9592 66.8848 31.8382C66.9874 31.7173 67.1054 31.6568 67.2388 31.6568C67.3722 31.6568 67.4896 31.7173 67.5909 31.8382C67.6922 31.9592 67.7429 32.1468 67.7429 32.4011C67.7429 32.6504 67.6922 32.8362 67.5909 32.9584C67.4896 33.0806 67.3722 33.1416 67.2388 33.1416ZM69.3033 33.5456C69.4491 33.5456 69.5708 33.5119 69.6684 33.4446C69.766 33.3773 69.8321 33.305 69.8667 33.2277H69.8704V33.4782H70.3226V31.3202H69.8556V32.5283C69.8556 32.6953 69.8161 32.8393 69.737 32.9602C69.6579 33.0812 69.548 33.1416 69.4071 33.1416C69.1724 33.1416 69.055 32.9733 69.055 32.6367V31.3202H68.5843V32.6966C68.5843 32.8586 68.6065 32.9983 68.651 33.1155C68.6955 33.2326 68.7548 33.3205 68.8289 33.3791C68.903 33.4377 68.979 33.4801 69.0568 33.5063C69.1347 33.5325 69.2168 33.5456 69.3033 33.5456ZM71.3049 33.4782V32.3787C71.3049 32.1692 71.3475 32.0015 71.4327 31.8756C71.518 31.7497 71.6409 31.6868 71.8015 31.6868C71.893 31.6868 71.9856 31.7017 72.0795 31.7316V31.3015C72.0079 31.2691 71.9152 31.2529 71.8015 31.2529C71.6805 31.2529 71.5761 31.2828 71.4883 31.3427C71.4006 31.4025 71.3333 31.4723 71.2863 31.5521V31.3202H70.8341V33.4782H71.3049ZM73.7586 33.4782V30.4226H73.2916V33.4782H73.7586ZM74.8372 30.9986V30.4787H74.3331V30.9986H74.8372ZM74.8187 33.4782V31.3202H74.3553V33.4782H74.8187ZM76.0085 33.4782V31.7242H76.4533V31.3202H76.0085V31.122C76.0085 31.0173 76.0264 30.9412 76.0622 30.8939C76.098 30.8465 76.1543 30.8228 76.2309 30.8228H76.5014V30.4226H76.1641C75.964 30.4226 75.8089 30.4781 75.699 30.589C75.589 30.7 75.534 30.8664 75.534 31.0883V31.3202H75.2079V31.7242H75.534V33.4782H76.0085ZM77.6505 33.5456C77.8827 33.5456 78.0767 33.492 78.2324 33.3847C78.3881 33.2775 78.5005 33.1441 78.5697 32.9846L78.1768 32.8499C78.1298 32.9422 78.0613 33.0176 77.9711 33.0762C77.8809 33.1348 77.7765 33.1641 77.6579 33.1641C77.4874 33.1641 77.3533 33.1049 77.2557 32.9864C77.1581 32.868 77.1093 32.7265 77.1093 32.5619H78.5919C78.5993 32.4996 78.603 32.436 78.603 32.3712C78.603 32.0396 78.5116 31.7703 78.3288 31.5633C78.1459 31.3564 77.9136 31.2529 77.6319 31.2529C77.3453 31.2529 77.1075 31.3558 76.9184 31.5615C76.7294 31.7672 76.6349 32.0433 76.6349 32.3899C76.6349 32.7415 76.7294 33.022 76.9184 33.2314C77.1075 33.4408 77.3515 33.5456 77.6505 33.5456ZM78.1249 32.2291H77.1167C77.1192 32.0695 77.1668 31.9305 77.2594 31.812C77.3521 31.6936 77.4763 31.6344 77.6319 31.6344C77.7876 31.6344 77.9087 31.6924 77.9952 31.8083C78.0817 31.9242 78.1249 32.0645 78.1249 32.2291Z" fill="#04091E"/>
<g id="floors">
<path id="Path" d="M11.1217 18.4205L11.1217 33.3159C11.1217 33.4584 11.0489 33.5903 10.9305 33.6626C10.812 33.7349 10.6655 33.7369 10.5453 33.6677L7.05172 31.6549C6.92841 31.5839 6.85188 31.4492 6.85181 31.303L6.85181 16.4077C6.85188 16.2651 6.92463 16.1332 7.04309 16.0609C7.16155 15.9886 7.30804 15.9867 7.42825 16.0558L10.9218 18.0687C11.0451 18.1396 11.1217 18.2743 11.1217 18.4205Z" fill="#04091E"/>
<path id="Path_2" d="M16.8139 18.4205V33.3159C16.8138 33.4584 16.7411 33.5903 16.6226 33.6626C16.5041 33.7349 16.3576 33.7369 16.2374 33.6677L12.7439 31.6549C12.6205 31.5839 12.544 31.4492 12.5439 31.303L12.5439 16.4077C12.544 16.2651 12.6168 16.1332 12.7352 16.0609C12.8537 15.9886 13.0002 15.9867 13.1204 16.0558L16.614 18.0687C16.7373 18.1396 16.8138 18.2743 16.8139 18.4205Z" fill="#04091E"/>
<path id="Path_3" d="M22.506 18.4205V33.3159C22.506 33.4584 22.4332 33.5903 22.3147 33.6626C22.1963 33.7349 22.0498 33.7369 21.9296 33.6677L18.436 31.6549C18.3127 31.5839 18.2362 31.4492 18.2361 31.303L18.2361 16.4077C18.2362 16.2651 18.3089 16.1332 18.4274 16.0609C18.5458 15.9886 18.6923 15.9867 18.8125 16.0558L22.3061 18.0687C22.4294 18.1396 22.5059 18.2743 22.506 18.4205Z" fill="#04091E"/>
</g>
</g>
</g>
</g>
</g>
</g>
</svg>
