<svg width="86" height="51" viewBox="0 0 86 51" fill="none" xmlns="http://www.w3.org/2000/svg">
<g id="Logo 02">
<rect id="Bg Shape" x="0.809082" width="84.2614" height="50.0139" fill="white"/>
<g id="Logo">
<g id="Page-1">
<g id="2">
<g id="9">
<path id="square" d="M31.5936 27.8816C33.7583 27.8816 35.1957 26.8681 35.1957 25.1207C35.1957 23.367 33.7675 22.8181 32.3964 22.4054L32.2385 22.3583C31.0315 22.001 29.9138 21.7181 29.9138 20.7696C29.9138 20.0182 30.5199 19.5464 31.5763 19.5464C32.4942 19.5464 33.1522 19.9308 33.4466 20.7521L34.8494 20.1929C34.4511 18.9697 33.2561 18.2882 31.5936 18.2882C29.5848 18.2882 28.286 19.2668 28.286 20.857C28.286 24.0198 33.5332 23.0238 33.5332 25.243C33.5332 26.0993 32.7886 26.5885 31.6456 26.5885C30.3814 26.5885 29.5328 26.0294 29.2384 25.0858L27.8357 25.6449C28.3206 27.1128 29.706 27.8816 31.5936 27.8816ZM45.0784 30.8173V18.4804H43.7103V20.1929C42.9829 19.0047 41.7707 18.2882 40.2467 18.2882C37.6491 18.2882 35.7961 20.3502 35.7961 23.0937C35.7961 25.8371 37.701 27.8816 40.2814 27.8816C41.7187 27.8816 42.879 27.2351 43.6063 26.1692V30.8173H45.0784ZM40.4545 26.5711C38.6189 26.5711 37.2508 25.0858 37.2508 23.0937C37.2508 21.0841 38.6189 19.5988 40.4545 19.5988C42.3422 19.5988 43.6583 21.0492 43.6583 23.0937C43.6583 25.1382 42.3595 26.5711 40.4545 26.5711ZM50.4757 27.8816C51.8265 27.8816 52.9175 27.2351 53.5236 26.3789V27.6894H54.9264V18.4804H53.4544V24.2645C53.437 25.4352 52.398 26.5536 50.8567 26.5536C49.2981 26.5711 48.311 25.5401 48.311 23.9849V18.4804H46.839V24.1596C46.839 26.3439 48.1378 27.8816 50.4757 27.8816ZM60.722 27.8816C62.2633 27.8816 63.4582 27.1477 64.1509 25.9245V27.6894H65.519V18.4804H64.1509V20.2628C63.4582 19.0746 62.2633 18.3756 60.722 18.3756C58.1417 18.3756 56.2367 20.3502 56.2367 23.0762C56.2367 25.8371 58.1244 27.8816 60.722 27.8816ZM60.8952 26.5711C59.0595 26.5711 57.6914 25.0858 57.6914 23.0762C57.6914 21.1016 59.0595 19.5988 60.8952 19.5988C62.8001 19.5988 64.099 21.0317 64.099 23.0762C64.099 25.1382 62.7828 26.5711 60.8952 26.5711ZM68.8729 27.6894V22.1326C68.8729 20.822 70.0332 19.6862 71.6957 19.6687V18.2882C70.4142 18.2882 69.3751 18.9697 68.7863 19.826V18.4804H67.4009V27.6894H68.8729ZM76.2791 27.8991C78.4438 27.8991 79.708 26.9555 80.3834 25.6449L79.1019 24.8586C78.6516 25.9245 77.8204 26.5012 76.331 26.5012C74.6512 26.5012 73.3178 25.3479 73.058 23.6354H80.6431C80.6605 23.4606 80.6778 23.1461 80.6778 22.884C80.6778 20.455 78.9287 18.2708 76.1752 18.2708C73.5948 18.2708 71.5687 20.4201 71.5687 23.0937C71.5687 25.8371 73.4736 27.8991 76.2791 27.8991ZM79.1711 22.3423H73.0753C73.3524 20.5948 74.6859 19.5639 76.2271 19.5639C77.7511 19.5639 78.946 20.6123 79.1711 22.3423Z" fill="#04091E"/>
<path id="RealEstateSolution" d="M49.0031 33.3126C49.0505 33.3126 49.1005 33.3095 49.1533 33.3034C49.2061 33.2973 49.2636 33.288 49.3258 33.2758V33.116H49.2893C49.1174 33.116 48.995 33.0952 48.9219 33.0536C48.8489 33.0119 48.7914 32.9338 48.7494 32.8191C48.7305 32.7713 48.7048 32.6747 48.6723 32.5293C48.6398 32.3839 48.6006 32.2737 48.5546 32.1986C48.514 32.1304 48.4586 32.0734 48.3882 32.0276C48.3178 31.9819 48.2306 31.9447 48.1264 31.916C48.3496 31.8669 48.5174 31.7839 48.6297 31.6672C48.742 31.5505 48.7981 31.4014 48.7981 31.2198C48.7981 30.9645 48.7163 30.7751 48.5526 30.6515C48.3889 30.528 48.1372 30.4662 47.7976 30.4662H46.7383V30.6341L46.9737 30.6587L47.0447 30.7181V33.028L46.9737 33.0874L46.7383 33.1078V33.2798H47.7266V33.1078L47.4892 33.0874L47.4181 33.028V32.0307L47.4323 32.0287C47.5216 32.0246 47.5866 32.0225 47.6272 32.0225C47.8179 32.0225 47.9603 32.0553 48.0544 32.1208C48.1484 32.1863 48.2231 32.3044 48.2786 32.4751C48.2935 32.5201 48.3131 32.5884 48.3375 32.6798C48.4024 32.9338 48.4843 33.1044 48.583 33.1918C48.6304 33.2327 48.6882 33.2631 48.7565 33.2829C48.8249 33.3027 48.9071 33.3126 49.0031 33.3126ZM47.6475 31.8321C47.6123 31.8321 47.5758 31.8317 47.5379 31.831C47.5 31.8304 47.4601 31.8293 47.4181 31.828V30.6587H47.619C47.8883 30.6587 48.0831 30.7058 48.2035 30.8C48.3239 30.8942 48.3841 31.0457 48.3841 31.2546C48.3841 31.4566 48.3256 31.6034 48.2086 31.6949C48.0916 31.7863 47.9045 31.8321 47.6475 31.8321ZM50.0782 33.3167C50.2121 33.3167 50.3454 33.2955 50.478 33.2532C50.6105 33.2109 50.7384 33.1488 50.8615 33.0669V32.8355C50.737 32.9188 50.6217 32.9802 50.5155 33.0198C50.4093 33.0594 50.3068 33.0792 50.208 33.0792C49.9943 33.0792 49.8245 33.0024 49.6987 32.8488C49.5728 32.6952 49.5099 32.4867 49.5099 32.2232V32.1761H50.8554C50.8581 32.1597 50.8598 32.1426 50.8605 32.1249C50.8612 32.1072 50.8615 32.0812 50.8615 32.0471C50.8615 31.7918 50.7942 31.5901 50.6596 31.442C50.525 31.2938 50.3427 31.2198 50.1127 31.2198C49.8312 31.2198 49.6009 31.3191 49.4216 31.5177C49.2424 31.7164 49.1527 31.9727 49.1527 32.2867C49.1527 32.5925 49.2383 32.8406 49.4095 33.031C49.5806 33.2215 49.8035 33.3167 50.0782 33.3167ZM50.4901 32H49.5302C49.5424 31.8293 49.5989 31.6884 49.6997 31.5771C49.8005 31.4659 49.9199 31.4102 50.0579 31.4102C50.1986 31.4102 50.3058 31.4553 50.3795 31.5454C50.4533 31.6355 50.4901 31.7652 50.4901 31.9345V32ZM51.6078 33.3085C51.7052 33.3085 51.8097 33.2863 51.9213 33.242C52.033 33.1976 52.1557 33.129 52.2897 33.0362L52.3445 33.2798H52.929V33.1283L52.7098 33.1078L52.6387 33.0403V31.8239C52.6387 31.6123 52.5894 31.4587 52.4906 31.3631C52.3918 31.2676 52.2335 31.2198 52.0157 31.2198C51.7681 31.2198 51.5662 31.2648 51.4099 31.3549C51.2537 31.445 51.1755 31.5583 51.1755 31.6949C51.1755 31.744 51.1847 31.7778 51.2029 31.7962C51.2212 31.8147 51.2554 31.8239 51.3054 31.8239H51.5916V31.4717C51.647 31.4498 51.7005 31.4334 51.7519 31.4225C51.8033 31.4116 51.8554 31.4061 51.9082 31.4061C52.0489 31.4061 52.1476 31.4403 52.2045 31.5085C52.2613 31.5768 52.2897 31.699 52.2897 31.8751V32.0082C51.7715 32.1338 51.4397 32.2478 51.2943 32.3502C51.1488 32.4525 51.0761 32.5932 51.0761 32.772C51.0761 32.9331 51.1245 33.0628 51.2212 33.1611C51.3179 33.2594 51.4468 33.3085 51.6078 33.3085ZM51.7742 33.0833C51.6727 33.0833 51.5919 33.0522 51.5317 32.9901C51.4715 32.928 51.4414 32.8444 51.4414 32.7392C51.4414 32.6082 51.4958 32.5024 51.6048 32.4218C51.7137 32.3413 51.942 32.2525 52.2897 32.1556V32.8949C52.1801 32.9577 52.083 33.0048 51.9985 33.0362C51.9139 33.0676 51.8392 33.0833 51.7742 33.0833ZM53.9594 33.2798V33.1283L53.7219 33.1078L53.6468 33.0403V30.1938H53.4885L52.9812 30.3433V30.4744H53.3018V33.0403L53.2308 33.1078L52.9852 33.1283V33.2798H53.9594ZM57.1972 33.2798V32.5959H56.9821L56.9111 33.0198L56.8522 33.0874H55.7381V31.9119H56.42L56.4788 31.9754L56.5194 32.2785H56.7163V31.3549H56.5194L56.4788 31.6601L56.42 31.7194H55.7381V30.6587H56.7L56.7568 30.7222L56.8157 31.0785H57.0491V30.4662H55.0582V30.6341L55.2936 30.6587L55.3647 30.7181V33.028L55.2936 33.0874L55.0582 33.1078V33.2798H57.1972ZM57.8907 33.3167C58.1343 33.3167 58.3247 33.2611 58.462 33.1498C58.5993 33.0385 58.668 32.8846 58.668 32.688C58.668 32.613 58.6545 32.5444 58.6274 32.4822C58.6004 32.4201 58.5611 32.3686 58.5097 32.3276C58.4394 32.2689 58.3257 32.2034 58.1688 32.131C58.1241 32.1106 58.091 32.0949 58.0693 32.0839C57.9313 32.0171 57.838 31.9563 57.7893 31.9017C57.7406 31.8471 57.7162 31.7809 57.7162 31.7031C57.7162 31.6075 57.7467 31.5331 57.8075 31.4799C57.8684 31.4266 57.953 31.4 58.0612 31.4C58.1113 31.4 58.1613 31.4075 58.2114 31.4225C58.2615 31.4375 58.3142 31.4601 58.3697 31.4901L58.4022 31.787H58.6071V31.3119C58.5368 31.2819 58.4613 31.259 58.3808 31.2433C58.3003 31.2276 58.2134 31.2198 58.1201 31.2198C57.886 31.2198 57.7047 31.271 57.5762 31.3734C57.4477 31.4758 57.3834 31.6205 57.3834 31.8075C57.3834 31.9304 57.4209 32.0334 57.496 32.1167C57.5711 32.2 57.7128 32.2887 57.9212 32.3829C58.1052 32.4676 58.2215 32.5375 58.2702 32.5928C58.319 32.6481 58.3433 32.7181 58.3433 32.8027C58.3433 32.9037 58.3078 32.9853 58.2368 33.0474C58.1657 33.1095 58.0714 33.1406 57.9537 33.1406C57.8941 33.1406 57.8349 33.1324 57.7761 33.116C57.7172 33.0996 57.6587 33.0744 57.6005 33.0403L57.5498 32.6839H57.3509V33.2287C57.428 33.2587 57.5123 33.2809 57.6036 33.2952C57.6949 33.3095 57.7906 33.3167 57.8907 33.3167ZM59.4975 33.2921C59.5827 33.2921 59.6714 33.2843 59.7634 33.2686C59.8554 33.2529 59.9487 33.23 60.0434 33.2V33.0444C59.992 33.0566 59.9423 33.0655 59.8943 33.071C59.8462 33.0764 59.7999 33.0792 59.7552 33.0792C59.6254 33.0792 59.5354 33.0481 59.4853 32.986C59.4353 32.9239 59.4102 32.802 59.4102 32.6205V31.5147H60.0434V31.3181H59.4102V30.8717H59.256L59.0774 31.2628L58.8034 31.3836V31.5147H59.0652V32.8682C59.0652 33.0293 59.0974 33.1403 59.1616 33.201C59.2259 33.2618 59.3379 33.2921 59.4975 33.2921ZM60.6558 33.3085C60.7532 33.3085 60.8577 33.2863 60.9693 33.242C61.0809 33.1976 61.2037 33.129 61.3376 33.0362L61.3924 33.2798H61.9769V33.1283L61.7577 33.1078L61.6867 33.0403V31.8239C61.6867 31.6123 61.6373 31.4587 61.5386 31.3631C61.4398 31.2676 61.2815 31.2198 61.0637 31.2198C60.8161 31.2198 60.6142 31.2648 60.4579 31.3549C60.3016 31.445 60.2235 31.5583 60.2235 31.6949C60.2235 31.744 60.2326 31.7778 60.2509 31.7962C60.2692 31.8147 60.3033 31.8239 60.3534 31.8239H60.6395V31.4717C60.695 31.4498 60.7484 31.4334 60.7998 31.4225C60.8513 31.4116 60.9033 31.4061 60.9561 31.4061C61.0968 31.4061 61.1956 31.4403 61.2524 31.5085C61.3092 31.5768 61.3376 31.699 61.3376 31.8751V32.0082C60.8195 32.1338 60.4877 32.2478 60.3422 32.3502C60.1968 32.4525 60.1241 32.5932 60.1241 32.772C60.1241 32.9331 60.1724 33.0628 60.2692 33.1611C60.3659 33.2594 60.4948 33.3085 60.6558 33.3085ZM60.8222 33.0833C60.7207 33.0833 60.6399 33.0522 60.5797 32.9901C60.5195 32.928 60.4893 32.8444 60.4893 32.7392C60.4893 32.6082 60.5438 32.5024 60.6527 32.4218C60.7616 32.3413 60.9899 32.2525 61.3376 32.1556V32.8949C61.2281 32.9577 61.131 33.0048 61.0464 33.0362C60.9619 33.0676 60.8871 33.0833 60.8222 33.0833ZM62.7151 33.2921C62.8003 33.2921 62.8889 33.2843 62.9809 33.2686C63.0729 33.2529 63.1663 33.23 63.261 33.2V33.0444C63.2096 33.0566 63.1599 33.0655 63.1118 33.071C63.0638 33.0764 63.0175 33.0792 62.9728 33.0792C62.8429 33.0792 62.753 33.0481 62.7029 32.986C62.6528 32.9239 62.6278 32.802 62.6278 32.6205V31.5147H63.261V31.3181H62.6278V30.8717H62.4736L62.295 31.2628L62.021 31.3836V31.5147H62.2828V32.8682C62.2828 33.0293 62.3149 33.1403 62.3792 33.201C62.4435 33.2618 62.5554 33.2921 62.7151 33.2921ZM64.2467 33.3167C64.3807 33.3167 64.514 33.2955 64.6465 33.2532C64.7791 33.2109 64.907 33.1488 65.0301 33.0669V32.8355C64.9056 32.9188 64.7903 32.9802 64.6841 33.0198C64.5779 33.0594 64.4754 33.0792 64.3766 33.0792C64.1629 33.0792 63.9931 33.0024 63.8672 32.8488C63.7414 32.6952 63.6785 32.4867 63.6785 32.2232V32.1761H65.024C65.0267 32.1597 65.0284 32.1426 65.0291 32.1249C65.0298 32.1072 65.0301 32.0812 65.0301 32.0471C65.0301 31.7918 64.9628 31.5901 64.8282 31.442C64.6936 31.2938 64.5112 31.2198 64.2812 31.2198C63.9998 31.2198 63.7695 31.3191 63.5902 31.5177C63.411 31.7164 63.3213 31.9727 63.3213 32.2867C63.3213 32.5925 63.4069 32.8406 63.5781 33.031C63.7492 33.2215 63.9721 33.3167 64.2467 33.3167ZM64.6587 32H63.6988C63.711 31.8293 63.7675 31.6884 63.8683 31.5771C63.9691 31.4659 64.0885 31.4102 64.2265 31.4102C64.3672 31.4102 64.4744 31.4553 64.5481 31.5454C64.6219 31.6355 64.6587 31.7652 64.6587 31.9345V32ZM67.0848 33.331C67.4095 33.331 67.67 33.2536 67.8661 33.0986C68.0623 32.9437 68.1604 32.7399 68.1604 32.4874C68.1604 32.3959 68.1452 32.3112 68.1147 32.2334C68.0843 32.1556 68.0386 32.0867 67.9778 32.0266C67.8709 31.9201 67.6964 31.8191 67.4542 31.7235C67.4082 31.7058 67.3737 31.6921 67.3507 31.6826C67.1044 31.5775 66.9458 31.4877 66.8748 31.4133C66.8037 31.3389 66.7682 31.245 66.7682 31.1317C66.7682 30.9761 66.819 30.8529 66.9204 30.7621C67.0219 30.6713 67.1592 30.6259 67.3324 30.6259C67.4055 30.6259 67.4731 30.6331 67.5354 30.6474C67.5976 30.6618 67.6551 30.6839 67.7079 30.714L67.7687 30.7836L67.8316 31.1829H68.0488V30.5338C67.927 30.4942 67.8076 30.4645 67.6906 30.4447C67.5736 30.4249 67.4569 30.415 67.3405 30.415C67.051 30.415 66.8186 30.4891 66.6434 30.6372C66.4682 30.7853 66.3806 30.9795 66.3806 31.2198C66.3806 31.3904 66.4266 31.5293 66.5186 31.6365C66.6106 31.7437 66.7987 31.8594 67.0828 31.9836C67.1058 31.9932 67.1389 32.0075 67.1822 32.0266C67.58 32.1973 67.7789 32.3897 67.7789 32.6041C67.7789 32.7583 67.7224 32.8809 67.6094 32.9717C67.4965 33.0624 67.3432 33.1078 67.1498 33.1078C67.0578 33.1078 66.9725 33.0996 66.8941 33.0833C66.8156 33.0669 66.7459 33.043 66.685 33.0116L66.6302 32.9399L66.5815 32.4587H66.336V33.1959C66.4347 33.2396 66.548 33.273 66.6759 33.2962C66.8037 33.3194 66.9401 33.331 67.0848 33.331ZM69.3775 33.3167C69.6589 33.3167 69.8906 33.2188 70.0726 33.0229C70.2546 32.8269 70.3456 32.5754 70.3456 32.2682C70.3456 31.9611 70.2549 31.7095 70.0736 31.5136C69.8923 31.3177 69.6603 31.2198 69.3775 31.2198C69.0934 31.2198 68.8617 31.3174 68.6825 31.5126C68.5032 31.7078 68.4136 31.9597 68.4136 32.2682C68.4136 32.5768 68.5039 32.8287 68.6845 33.0239C68.8651 33.2191 69.0961 33.3167 69.3775 33.3167ZM69.3775 33.1365C69.2057 33.1365 69.067 33.0577 68.9615 32.9C68.856 32.7423 68.8032 32.5317 68.8032 32.2682C68.8032 32.0048 68.8556 31.7942 68.9605 31.6365C69.0653 31.4788 69.2043 31.4 69.3775 31.4C69.5507 31.4 69.6904 31.4792 69.7966 31.6375C69.9028 31.7959 69.9559 32.0061 69.9559 32.2682C69.9559 32.5331 69.9031 32.744 69.7976 32.901C69.6921 33.058 69.5521 33.1365 69.3775 33.1365ZM71.451 33.2798V33.1283L71.2136 33.1078L71.1385 33.0403V30.1938H70.9802L70.4729 30.3433V30.4744H70.7935V33.0403L70.7225 33.1078L70.4769 33.1283V33.2798H71.451ZM72.3556 33.3208C72.4544 33.3208 72.5589 33.2983 72.6692 33.2532C72.7794 33.2082 72.8995 33.1385 73.0294 33.0444V33.2798H73.6443V33.1283L73.4495 33.1078L73.3744 33.0403V31.2198H73.2161L72.7331 31.3754V31.5065H73.0294V32.9276C72.9428 32.9699 72.8599 33.0013 72.7808 33.0218C72.7016 33.0423 72.6235 33.0525 72.5464 33.0525C72.4084 33.0525 72.3069 33.0167 72.242 32.945C72.177 32.8734 72.1446 32.7611 72.1446 32.6082V31.2198H71.9863L71.5033 31.3754V31.5065H71.7996V32.6798C71.7996 32.8874 71.8473 33.0461 71.9426 33.156C72.038 33.2659 72.1757 33.3208 72.3556 33.3208ZM74.419 33.2921C74.5042 33.2921 74.5929 33.2843 74.6849 33.2686C74.7769 33.2529 74.8702 33.23 74.9649 33.2V33.0444C74.9135 33.0566 74.8638 33.0655 74.8158 33.071C74.7677 33.0764 74.7214 33.0792 74.6767 33.0792C74.5469 33.0792 74.4569 33.0481 74.4068 32.986C74.3568 32.9239 74.3317 32.802 74.3317 32.6205V31.5147H74.9649V31.3181H74.3317V30.8717H74.1775L73.9989 31.2628L73.7249 31.3836V31.5147H73.9867V32.8682C73.9867 33.0293 74.0189 33.1403 74.0831 33.201C74.1474 33.2618 74.2594 33.2921 74.419 33.2921ZM75.5103 30.7938C75.5779 30.7938 75.6351 30.7706 75.6818 30.7242C75.7285 30.6778 75.7518 30.6212 75.7518 30.5543C75.7518 30.4874 75.7285 30.43 75.6818 30.3822C75.6351 30.3345 75.5779 30.3106 75.5103 30.3106C75.444 30.3106 75.3875 30.3341 75.3408 30.3812C75.2942 30.4283 75.2708 30.486 75.2708 30.5543C75.2708 30.6212 75.2942 30.6778 75.3408 30.7242C75.3875 30.7706 75.444 30.7938 75.5103 30.7938ZM75.9507 33.2798V33.1283L75.7274 33.1078L75.6564 33.0403V31.2423H75.4941L75.0171 31.3918V31.5229H75.3073V33.0403L75.2363 33.1078L75.0171 33.1283V33.2798H75.9507ZM77.0136 33.3167C77.295 33.3167 77.5267 33.2188 77.7086 33.0229C77.8906 32.8269 77.9816 32.5754 77.9816 32.2682C77.9816 31.9611 77.8909 31.7095 77.7096 31.5136C77.5283 31.3177 77.2963 31.2198 77.0136 31.2198C76.7294 31.2198 76.4977 31.3174 76.3185 31.5126C76.1392 31.7078 76.0496 31.9597 76.0496 32.2682C76.0496 32.5768 76.1399 32.8287 76.3205 33.0239C76.5011 33.2191 76.7321 33.3167 77.0136 33.3167ZM77.0136 33.1365C76.8417 33.1365 76.7031 33.0577 76.5975 32.9C76.492 32.7423 76.4392 32.5317 76.4392 32.2682C76.4392 32.0048 76.4917 31.7942 76.5965 31.6365C76.7014 31.4788 76.8404 31.4 77.0136 31.4C77.1867 31.4 77.3264 31.4792 77.4326 31.6375C77.5388 31.7959 77.5919 32.0061 77.5919 32.2682C77.5919 32.5331 77.5392 32.744 77.4336 32.901C77.3281 33.058 77.1881 33.1365 77.0136 33.1365ZM79.0323 33.2798V33.1283L78.8334 33.1078L78.7624 33.0403V31.6355C78.8517 31.5891 78.9349 31.5546 79.012 31.5321C79.0891 31.5095 79.1608 31.4983 79.2271 31.4983C79.3786 31.4983 79.4865 31.531 79.5508 31.5966C79.6151 31.6621 79.6472 31.7734 79.6472 31.9304V33.0403L79.5762 33.1078L79.3773 33.1283V33.2798H80.2865V33.1283L80.0632 33.1078L79.9922 33.0403V31.8587C79.9922 31.6512 79.9442 31.4928 79.8481 31.3836C79.752 31.2744 79.6134 31.2198 79.4321 31.2198C79.355 31.2198 79.2657 31.2386 79.1642 31.2761C79.0627 31.3136 78.9288 31.3788 78.7624 31.4717V31.2423H78.6041L78.1211 31.3918V31.5229H78.4174V33.0403L78.3463 33.1078L78.1211 33.1283V33.2798H79.0323Z" fill="#04091E"/>
<path id="Icon" fill-rule="evenodd" clip-rule="evenodd" d="M5.26978 16.5046H22.5875V33.979H5.26978V16.5046ZM18.1587 20.9733L9.6976 20.9723V29.5108L9.6948 29.5135L9.69488 29.5141H18.1626L18.1619 20.9702L18.1615 20.9702L18.1587 20.9733Z" fill="#04091E"/>
</g>
</g>
</g>
</g>
</g>
</svg>
