<svg width="29" height="29" viewBox="0 0 29 29" fill="none" xmlns="http://www.w3.org/2000/svg">
<g id="Group">
<path id="Vector" fill-rule="evenodd" clip-rule="evenodd" d="M14.4989 0.928894C6.84166 0.928894 0.62915 7.1414 0.62915 14.7987C0.62915 22.456 6.84166 28.6685 14.4989 28.6685C22.1412 28.6685 28.3687 22.456 28.3687 14.7987C28.3687 7.1414 22.1412 0.928894 14.4989 0.928894ZM23.6599 7.32171C25.3676 9.40141 26.3126 12.0026 26.338 14.6935C25.9473 14.6184 22.036 13.8209 18.0947 14.3179C18.0034 14.1214 17.9282 13.911 17.8381 13.7007C17.593 13.1221 17.3324 12.5501 17.0568 11.9854C21.4188 10.2101 23.4045 7.65343 23.6599 7.32171ZM14.4989 2.97584C17.5075 2.97584 20.2607 4.10276 22.3515 5.95322C22.1412 6.25374 20.3508 8.64627 16.139 10.2251C14.1973 6.66058 12.0475 3.74099 11.7157 3.29023C12.628 3.07719 13.5621 2.9713 14.4989 2.97469V2.97584ZM9.45958 4.08774C9.77512 4.50961 11.881 7.44307 13.8517 10.9325C8.31532 12.4073 3.42622 12.3772 2.90033 12.3772C3.66779 8.70638 6.15048 5.65271 9.45958 4.08774ZM2.64489 14.8137V14.4531C3.15692 14.4681 8.90248 14.5432 14.8156 12.7679C15.1612 13.4302 15.4768 14.1063 15.7773 14.7837C15.627 14.8287 15.4617 14.8738 15.3115 14.9189C9.20415 16.8896 5.95399 22.2745 5.68353 22.7264C3.72721 20.5552 2.64466 17.7362 2.64489 14.8137ZM14.4989 26.6527C11.7608 26.6527 9.2342 25.72 7.23348 24.1562C7.44384 23.7193 9.85025 19.0856 16.5297 16.7543C16.5598 16.7393 16.5759 16.7393 16.6048 16.7243C18.275 21.0412 18.9511 24.667 19.1326 25.705C17.7029 26.3222 16.139 26.6527 14.4989 26.6527ZM21.1033 24.622C20.9831 23.8996 20.3508 20.4402 18.8009 16.1822C22.5168 15.5962 25.7658 16.559 26.1727 16.6942C25.6606 19.9883 23.7651 22.8316 21.1033 24.622Z" fill="#0B0B0B"/>
</g>
</svg>
