<svg width="29" height="29" viewBox="0 0 45 29" fill="none" xmlns="http://www.w3.org/2000/svg">
<path id="Vector" d="M29.6002 2.76383H40.6264V5.43885H29.6002V2.76383ZM18.5519 13.3479C20.9893 12.1817 22.266 10.4075 22.266 7.6662C22.266 2.2443 18.2314 0.928894 13.5722 0.928894H0.749756V28.1434H13.9314C18.8725 28.1434 23.5096 25.7668 23.5096 20.2399C23.5096 16.8243 21.8957 14.2985 18.5519 13.3479ZM6.72987 5.5715H12.3397C14.5007 5.5715 16.4407 6.17393 16.4407 8.68315C16.4407 10.9934 14.9318 11.9219 12.7929 11.9219H6.72987V5.5715ZM13.1135 23.5229H6.72435V16.0284H13.2406C15.8714 16.0284 17.535 17.1283 17.535 19.9138C17.535 22.6552 15.5508 23.5229 13.1135 23.5229ZM44.9374 18.5763C44.9374 12.7454 41.5273 7.88728 35.3593 7.88728C29.3626 7.88728 25.2837 12.4028 25.2837 18.3221C25.2837 24.457 29.147 28.6685 35.3593 28.6685C40.0627 28.6685 43.108 26.5517 44.5726 22.0362H39.8029C39.2834 23.7219 37.1721 24.6062 35.5306 24.6062C32.3582 24.6062 30.7001 22.7491 30.7001 19.5933H44.8987C44.9153 19.2672 44.9374 18.9245 44.9374 18.5763ZM30.7001 16.1776C30.8714 13.5855 32.6013 11.9661 35.1879 11.9661C37.9072 11.9661 39.2668 13.5634 39.5045 16.1776H30.7001Z" fill="#0B0B0B"/>
</svg>
