<svg width="30" height="29" viewBox="0 0 30 29" fill="none" xmlns="http://www.w3.org/2000/svg">
<path id="Vector" d="M7.40077 28.6685V9.95262H1.18001V28.6685H7.40077ZM4.29119 7.39576C6.46048 7.39576 7.81076 5.9586 7.81076 4.16263C7.77034 2.32616 6.46056 0.928894 4.33236 0.928894C2.20449 0.928894 0.812988 2.32619 0.812988 4.16263C0.812988 5.95868 2.16293 7.39576 4.25058 7.39576H4.291H4.29119ZM10.8439 28.6685H17.0647V18.2166C17.0647 17.6573 17.1051 17.0985 17.2694 16.6986C17.7191 15.581 18.7427 14.4235 20.4611 14.4235C22.7121 14.4235 23.6127 16.1398 23.6127 18.6558V28.6683H29.833V17.9368C29.833 12.1881 26.7641 9.51323 22.6712 9.51323C19.3153 9.51323 17.8419 11.389 17.0233 12.6666H17.0648V9.95224H10.8441C10.9257 11.7084 10.8441 28.6681 10.8441 28.6681L10.8439 28.6685Z" fill="#0B0B0B"/>
</svg>
