<svg width="29" height="29" viewBox="0 0 28 29" fill="none" xmlns="http://www.w3.org/2000/svg">
<g id="Group 11564">
<path id="Vector" d="M21.3258 9.05977C22.245 9.05977 22.9901 8.3146 22.9901 7.39539C22.9901 6.47618 22.245 5.73102 21.3258 5.73102C20.4065 5.73102 19.6614 6.47618 19.6614 7.39539C19.6614 8.3146 20.4065 9.05977 21.3258 9.05977Z" fill="#0B0B0B"/>
<path id="Vector_2" d="M13.9212 7.67596C12.5126 7.67596 11.1356 8.09367 9.96436 8.87626C8.79314 9.65885 7.88027 10.7712 7.34122 12.0726C6.80216 13.374 6.66112 14.806 6.93593 16.1876C7.21073 17.5691 7.88905 18.8382 8.8851 19.8342C9.88115 20.8303 11.1502 21.5086 12.5318 21.7834C13.9133 22.0582 15.3453 21.9172 16.6467 21.3781C17.9481 20.839 19.0605 19.9262 19.843 18.7549C20.6256 17.5837 21.0433 16.2067 21.0433 14.7981C21.0433 12.9092 20.293 11.0976 18.9573 9.76199C17.6217 8.42633 15.8101 7.67596 13.9212 7.67596ZM13.9212 19.4214C13.0068 19.4214 12.113 19.1502 11.3527 18.6422C10.5924 18.1342 9.9998 17.4121 9.64987 16.5673C9.29995 15.7226 9.20839 14.793 9.38678 13.8961C9.56517 12.9993 10.0055 12.1755 10.6521 11.529C11.2986 10.8824 12.1224 10.4421 13.0193 10.2637C13.9161 10.0853 14.8457 10.1768 15.6905 10.5268C16.5352 10.8767 17.2573 11.4693 17.7653 12.2296C18.2733 12.9898 18.5445 13.8837 18.5445 14.7981C18.5445 16.0243 18.0574 17.2002 17.1903 18.0672C16.3233 18.9343 15.1474 19.4214 13.9212 19.4214Z" fill="#0B0B0B"/>
<path id="Vector_3" d="M13.9215 3.42777C17.6248 3.42777 18.064 3.44164 19.5261 3.50867C20.4055 3.51911 21.2765 3.68058 22.1012 3.98603C22.6996 4.21683 23.2429 4.57034 23.6964 5.02381C24.1499 5.47727 24.5034 6.02065 24.7342 6.61897C25.0396 7.44368 25.2011 8.31474 25.2115 9.19413C25.2786 10.6562 25.2925 11.0954 25.2925 14.7998C25.2925 18.5042 25.2786 18.9411 25.2115 20.4032C25.2011 21.2826 25.0396 22.1537 24.7342 22.9784C24.5034 23.5767 24.1499 24.1201 23.6964 24.5736C23.2429 25.027 22.6996 25.3805 22.1012 25.6113C21.2765 25.9168 20.4055 26.0782 19.5261 26.0887C18.064 26.1557 17.6248 26.1696 13.9215 26.1696C10.2183 26.1696 9.7791 26.1557 8.31699 26.0887C7.4376 26.0782 6.56654 25.9168 5.74184 25.6113C5.14352 25.3805 4.60014 25.027 4.14667 24.5736C3.69321 24.1201 3.3397 23.5767 3.10889 22.9784C2.80344 22.1537 2.64198 21.2826 2.63154 20.4032C2.5645 18.9411 2.55063 18.5019 2.55063 14.7987C2.55063 11.0954 2.5645 10.6562 2.63154 9.19413C2.64198 8.31474 2.80344 7.44368 3.10889 6.61897C3.3397 6.02065 3.69321 5.47727 4.14667 5.02381C4.60014 4.57034 5.14352 4.21683 5.74184 3.98603C6.56654 3.68058 7.4376 3.51911 8.31699 3.50867C9.7791 3.44164 10.2183 3.42777 13.9215 3.42777ZM13.9215 0.928894C10.1547 0.928894 9.68201 0.945075 8.20257 1.01211C7.05227 1.03534 5.91424 1.25341 4.83683 1.65706C3.91533 2.01339 3.07844 2.55834 2.37982 3.25696C1.6812 3.95558 1.13626 4.79247 0.779922 5.71397C0.376147 6.79174 0.158074 7.93017 0.134977 9.08086C0.0679393 10.5603 0.0517578 11.0307 0.0517578 14.7987C0.0517578 18.5666 0.0679393 19.0382 0.134977 20.5177C0.158204 21.668 0.376275 22.806 0.779922 23.8834C1.13626 24.8049 1.6812 25.6418 2.37982 26.3404C3.07844 27.039 3.91533 27.584 4.83683 27.9403C5.9146 28.3441 7.05304 28.5621 8.20372 28.5852C9.68317 28.6523 10.1547 28.6685 13.9215 28.6685C17.6883 28.6685 18.1611 28.6523 19.6405 28.5852C20.7912 28.5621 21.9296 28.3441 23.0074 27.9403C23.9289 27.584 24.7658 27.039 25.4644 26.3404C26.163 25.6418 26.708 24.8049 27.0643 23.8834C27.4677 22.8056 27.6854 21.6671 27.7081 20.5165C27.7751 19.0371 27.7913 18.5666 27.7913 14.7987C27.7913 11.0307 27.7751 10.5591 27.7081 9.07971C27.6849 7.92941 27.4668 6.79137 27.0632 5.71397C26.7068 4.79247 26.1619 3.95558 25.4633 3.25696C24.7646 2.55834 23.9278 2.01339 23.0063 1.65706C21.9284 1.25368 20.79 1.036 19.6394 1.01327C18.1599 0.94392 17.6895 0.928894 13.9215 0.928894Z" fill="#0B0B0B"/>
</g>
</svg>
