<svg width="20" height="21" viewBox="0 0 20 21" fill="none" xmlns="http://www.w3.org/2000/svg">
<g id="arrow">
<path id="Stroke 1" d="M4.54643 15.6261C4.29567 15.3754 4.27477 14.9818 4.48374 14.7072L4.54643 14.6355L14.4528 4.72914C14.7264 4.45558 15.1699 4.45559 15.4434 4.72914C15.6942 4.9799 15.7151 5.37348 15.5061 5.64805L15.4434 5.71978L5.53707 15.6261C5.26351 15.8997 4.81999 15.8997 4.54643 15.6261Z" fill="white" stroke="white" stroke-width="0.770544"/>
<path id="Stroke 3" d="M6.97521 5.94164C6.58834 5.94247 6.27405 5.62953 6.27322 5.24266C6.27246 4.89096 6.53102 4.59924 6.8687 4.54849L6.97219 4.54067L14.9462 4.5235C15.2989 4.52274 15.5911 4.78279 15.6407 5.1216L15.6481 5.22543L15.6316 13.2001C15.6308 13.5869 15.3166 13.8999 14.9297 13.8991C14.578 13.8984 14.2874 13.6386 14.238 13.3007L14.2307 13.1972L14.2453 5.92595L6.97521 5.94164Z" fill="white" stroke="white" stroke-width="0.770544"/>
</g>
</svg>
