<svg width="36" height="37" viewBox="0 0 36 37" fill="none" xmlns="http://www.w3.org/2000/svg">
<g id="Icon">
<g id="vuesax/bold/quote-up">
<g id="quote-up">
<path id="Vector" d="M12.575 17.9789H5.67609C5.79377 11.1093 7.14708 9.97668 11.3688 7.47599C11.8543 7.1818 12.0161 6.56398 11.7219 6.06384C11.4424 5.57841 10.8099 5.4166 10.3244 5.7108C5.35247 8.65279 3.6167 10.4474 3.6167 18.9939V26.9225C3.6167 29.4379 5.66138 31.4679 8.16207 31.4679H12.575C15.164 31.4679 17.1204 29.5115 17.1204 26.9225V22.5095C17.1204 19.9353 15.164 17.9789 12.575 17.9789Z" fill="url(#paint0_linear_201_944)"/>
<path id="Vector_2" d="M28.4911 17.9789H21.5922C21.7098 11.1093 23.0632 9.97668 27.2849 7.47599C27.7703 7.1818 27.9321 6.56398 27.6379 6.06384C27.3438 5.57841 26.7259 5.4166 26.2258 5.7108C21.2538 8.65279 19.5181 10.4474 19.5181 19.0086V26.9372C19.5181 29.4526 21.5627 31.4826 24.0634 31.4826H28.4764C31.0654 31.4826 33.0218 29.5262 33.0218 26.9372V22.5243C33.0365 19.9353 31.0801 17.9789 28.4911 17.9789Z" fill="url(#paint1_linear_201_944)"/>
</g>
</g>
</g>
<defs>
<linearGradient id="paint0_linear_201_944" x1="19.1705" y1="193.609" x2="-15.6826" y2="192.17" gradientUnits="userSpaceOnUse">
<stop stop-color="#6C38D0"/>
<stop offset="1" stop-color="#CF3886"/>
</linearGradient>
<linearGradient id="paint1_linear_201_944" x1="35.0719" y1="193.716" x2="0.218592" y2="192.277" gradientUnits="userSpaceOnUse">
<stop stop-color="#6C38D0"/>
<stop offset="1" stop-color="#CF3886"/>
</linearGradient>
</defs>
</svg>
